<svg width="0" height="0" display="none" xmlns="http://www.w3.org/2000/svg">
<defs>
<symbol id="categories" viewBox="0 0 21 24">
<title>Categories</title>
<path d="M13.701 12.857h4.232c-0.027-0.067-0.040-0.147-0.067-0.214l-2.839-6.643h-9.482l-2.839 6.643c-0.027 0.067-0.040 0.147-0.067 0.214h4.232l1.272 2.571h4.286zM20.571 13.259v6.455c0 0.469-0.388 0.857-0.857 0.857h-18.857c-0.469 0-0.857-0.388-0.857-0.857v-6.455c0-0.482 0.147-1.192 0.335-1.647l3.188-7.393c0.188-0.442 0.723-0.79 1.192-0.79h11.143c0.469 0 1.004 0.348 1.192 0.79l3.188 7.393c0.188 0.455 0.335 1.165 0.335 1.647z"></path>
</symbol>
<symbol id="check" viewBox="0 0 28 28">
<title>Check</title>
<path d="M26.109 8.844c0 0.391-0.156 0.781-0.438 1.062l-13.438 13.438c-0.281 0.281-0.672 0.438-1.062 0.438s-0.781-0.156-1.062-0.438l-7.781-7.781c-0.281-0.281-0.438-0.672-0.438-1.062s0.156-0.781 0.438-1.062l2.125-2.125c0.281-0.281 0.672-0.438 1.062-0.438s0.781 0.156 1.062 0.438l4.594 4.609 10.25-10.266c0.281-0.281 0.672-0.438 1.062-0.438s0.781 0.156 1.062 0.438l2.125 2.125c0.281 0.281 0.438 0.672 0.438 1.062z"></path>
</symbol>
<symbol id="close" viewBox="0 0 22 28">
<title>Close</title>
<path d="M20.281 20.656c0 0.391-0.156 0.781-0.438 1.062l-2.125 2.125c-0.281 0.281-0.672 0.438-1.062 0.438s-0.781-0.156-1.062-0.438l-4.594-4.594-4.594 4.594c-0.281 0.281-0.672 0.438-1.062 0.438s-0.781-0.156-1.062-0.438l-2.125-2.125c-0.281-0.281-0.438-0.672-0.438-1.062s0.156-0.781 0.438-1.062l4.594-4.594-4.594-4.594c-0.281-0.281-0.438-0.672-0.438-1.062s0.156-0.781 0.438-1.062l2.125-2.125c0.281-0.281 0.672-0.438 1.062-0.438s0.781 0.156 1.062 0.438l4.594 4.594 4.594-4.594c0.281-0.281 0.672-0.438 1.062-0.438s0.781 0.156 1.062 0.438l2.125 2.125c0.281 0.281 0.438 0.672 0.438 1.062s-0.156 0.781-0.438 1.062l-4.594 4.594 4.594 4.594c0.281 0.281 0.438 0.672 0.438 1.062z"></path>
</symbol>
<symbol id="edit" viewBox="0 0 24 24">
<title>Edit</title>
<path d="M20.719 7.031l-1.828 1.828-3.75-3.75 1.828-1.828q0.281-0.281 0.703-0.281t0.703 0.281l2.344 2.344q0.281 0.281 0.281 0.703t-0.281 0.703zM3 17.25l11.063-11.063 3.75 3.75-11.063 11.063h-3.75v-3.75z"></path>
</symbol>
<symbol id="email" viewBox="0 0 28 28">
<title>Email</title>
<path d="M28 10.219v15.281c0 1.375-1.125 2.5-2.5 2.5h-23c-1.375 0-2.5-1.125-2.5-2.5v-15.281c0-0.141 0.063-0.281 0.172-0.375 1.641-1.437 1.656-1.609 9.812-7.562 0.984-0.719 2.719-2.281 4.016-2.281s3.047 1.578 4.016 2.281c8.156 5.953 8.172 6.125 9.812 7.562 0.109 0.094 0.172 0.234 0.172 0.375zM19.187 19.359c2.438-1.766 4.141-3 5.391-3.938 0.219-0.156 0.266-0.469 0.094-0.688l-0.594-0.812c-0.172-0.219-0.484-0.266-0.703-0.094-1.234 0.906-2.922 2.156-5.359 3.906-0.969 0.703-2.719 2.266-4.016 2.266s-3.047-1.563-4.016-2.266c-2.438-1.766-4.125-3-5.359-3.906-0.219-0.172-0.531-0.125-0.703 0.094l-0.594 0.812c-0.172 0.219-0.125 0.531 0.094 0.688 1.25 0.938 2.953 2.172 5.391 3.938 1.219 0.875 3.141 2.641 5.187 2.641 2.063 0 4.031-1.797 5.187-2.641z"></path>
</symbol>
<symbol id="github" viewBox="0 0 24 28">
<title>Github</title>
<path d="M12 2c6.625 0 12 5.375 12 12 0 5.297-3.437 9.797-8.203 11.391-0.609 0.109-0.828-0.266-0.828-0.578 0-0.391 0.016-1.687 0.016-3.297 0-1.125-0.375-1.844-0.812-2.219 2.672-0.297 5.484-1.313 5.484-5.922 0-1.313-0.469-2.375-1.234-3.219 0.125-0.313 0.531-1.531-0.125-3.187-1-0.313-3.297 1.234-3.297 1.234-0.953-0.266-1.984-0.406-3-0.406s-2.047 0.141-3 0.406c0 0-2.297-1.547-3.297-1.234-0.656 1.656-0.25 2.875-0.125 3.187-0.766 0.844-1.234 1.906-1.234 3.219 0 4.594 2.797 5.625 5.469 5.922-0.344 0.313-0.656 0.844-0.766 1.609-0.688 0.313-2.438 0.844-3.484-1-0.656-1.141-1.844-1.234-1.844-1.234-1.172-0.016-0.078 0.734-0.078 0.734 0.781 0.359 1.328 1.75 1.328 1.75 0.703 2.141 4.047 1.422 4.047 1.422 0 1 0.016 1.937 0.016 2.234 0 0.313-0.219 0.688-0.828 0.578-4.766-1.594-8.203-6.094-8.203-11.391 0-6.625 5.375-12 12-12zM4.547 19.234c0.031-0.063-0.016-0.141-0.109-0.187-0.094-0.031-0.172-0.016-0.203 0.031-0.031 0.063 0.016 0.141 0.109 0.187 0.078 0.047 0.172 0.031 0.203-0.031zM5.031 19.766c0.063-0.047 0.047-0.156-0.031-0.25-0.078-0.078-0.187-0.109-0.25-0.047-0.063 0.047-0.047 0.156 0.031 0.25 0.078 0.078 0.187 0.109 0.25 0.047zM5.5 20.469c0.078-0.063 0.078-0.187 0-0.297-0.063-0.109-0.187-0.156-0.266-0.094-0.078 0.047-0.078 0.172 0 0.281s0.203 0.156 0.266 0.109zM6.156 21.125c0.063-0.063 0.031-0.203-0.063-0.297-0.109-0.109-0.25-0.125-0.313-0.047-0.078 0.063-0.047 0.203 0.063 0.297 0.109 0.109 0.25 0.125 0.313 0.047zM7.047 21.516c0.031-0.094-0.063-0.203-0.203-0.25-0.125-0.031-0.266 0.016-0.297 0.109s0.063 0.203 0.203 0.234c0.125 0.047 0.266 0 0.297-0.094zM8.031 21.594c0-0.109-0.125-0.187-0.266-0.172-0.141 0-0.25 0.078-0.25 0.172 0 0.109 0.109 0.187 0.266 0.172 0.141 0 0.25-0.078 0.25-0.172zM8.937 21.438c-0.016-0.094-0.141-0.156-0.281-0.141-0.141 0.031-0.234 0.125-0.219 0.234 0.016 0.094 0.141 0.156 0.281 0.125s0.234-0.125 0.219-0.219z"></path>
</symbol>
<symbol id="home" viewBox="0 0 24 24">
<title>Home</title>
<path d="M9.984 20.016h-4.969v-8.016h-3l9.984-9 9.984 9h-3v8.016h-4.969v-6h-4.031v6z"></path>
</symbol>
<svg id="instagram" viewBox="0 0 24 28" width="100%" height="100%">
<title>Instagram</title>
<path d="M16 14c0-2.203-1.797-4-4-4s-4 1.797-4 4 1.797 4 4 4 4-1.797 4-4zM18.156 14c0 3.406-2.75 6.156-6.156 6.156s-6.156-2.75-6.156-6.156 2.75-6.156 6.156-6.156 6.156 2.75 6.156 6.156zM19.844 7.594c0 0.797-0.641 1.437-1.437 1.437s-1.437-0.641-1.437-1.437 0.641-1.437 1.437-1.437 1.437 0.641 1.437 1.437zM12 4.156c-1.75 0-5.5-0.141-7.078 0.484-0.547 0.219-0.953 0.484-1.375 0.906s-0.688 0.828-0.906 1.375c-0.625 1.578-0.484 5.328-0.484 7.078s-0.141 5.5 0.484 7.078c0.219 0.547 0.484 0.953 0.906 1.375s0.828 0.688 1.375 0.906c1.578 0.625 5.328 0.484 7.078 0.484s5.5 0.141 7.078-0.484c0.547-0.219 0.953-0.484 1.375-0.906s0.688-0.828 0.906-1.375c0.625-1.578 0.484-5.328 0.484-7.078s0.141-5.5-0.484-7.078c-0.219-0.547-0.484-0.953-0.906-1.375s-0.828-0.688-1.375-0.906c-1.578-0.625-5.328-0.484-7.078-0.484zM24 14c0 1.656 0.016 3.297-0.078 4.953-0.094 1.922-0.531 3.625-1.937 5.031s-3.109 1.844-5.031 1.937c-1.656 0.094-3.297 0.078-4.953 0.078s-3.297 0.016-4.953-0.078c-1.922-0.094-3.625-0.531-5.031-1.937s-1.844-3.109-1.937-5.031c-0.094-1.656-0.078-3.297-0.078-4.953s-0.016-3.297 0.078-4.953c0.094-1.922 0.531-3.625 1.937-5.031s3.109-1.844 5.031-1.937c1.656-0.094 3.297-0.078 4.953-0.078s3.297-0.016 4.953 0.078c1.922 0.094 3.625 0.531 5.031 1.937s1.844 3.109 1.937 5.031c0.094 1.656 0.078 3.297 0.078 4.953z"></path>
</svg>
<symbol id="keybase" viewBox="0 0 32 32">
<title>Keybase</title>
<path d="M13.928 28.495c0 0.704-0.571 1.271-1.272 1.271-0.7 0-1.272-0.567-1.272-1.271 0-0.701 0.571-1.272 1.271-1.272 0.699 0 1.268 0.575 1.268 1.273zM21.819 28.495c0 0.704-0.571 1.271-1.273 1.271-0.701 0-1.269-0.567-1.269-1.271 0-0.701 0.564-1.272 1.265-1.272s1.272 0.575 1.272 1.273zM27.872 16.284l-0.208-0.272c-0.061-0.080-0.128-0.155-0.191-0.233-0.060-0.081-0.125-0.151-0.188-0.225-0.139-0.16-0.279-0.319-0.425-0.479l-0.101-0.107-0.121-0.132-0.18-0.175c-0.020-0.024-0.043-0.045-0.067-0.071-1.547-1.519-3.34-2.648-5.273-3.339l-0.307-0.104c0.016-0.036 0.032-0.073 0.047-0.111 0.547-1.419 0.489-2.964-0.16-4.34-0.655-1.38-1.808-2.4-3.251-2.88-0.875-0.288-1.64-0.425-2.281-0.407-0.044-0.14-0.133-0.769 0.661-2.464l-1.609-0.947-0.383 0.532c-0.44 0.607-0.864 1.193-1.26 1.771-0.437-0.46-1.021-0.736-1.66-0.773l-1.877-0.115c-0.044-0.004-0.093-0.004-0.139-0.004-1.32 0-2.413 1.028-2.493 2.34l-0.117 1.869v0.004c-0.081 1.372 0.969 2.553 2.34 2.639l1.336 0.081c-0.087 1.12 0.097 2.16 0.54 3.075-1.795 0.749-3.448 1.868-4.88 3.312-4.407 4.457-4.407 9.337-4.407 13.261v2.367l1.74-1.849c0.355 1.24 0.869 2.409 1.527 3.487h2.263c-1.111-1.485-1.892-3.235-2.24-5.131l2.551-2.707-1.313 4.121 2.32-1.691c4.1-2.979 8.992-3.667 14.547-2.039 2.407 0.709 4.747 0.052 5.964-1.676l0.139-0.22c0.121 0.664 0.188 1.331 0.188 1.995 0 2.084-0.34 4.916-1.84 7.349h2.148c1.035-2.084 1.575-4.576 1.575-7.349-0.001-2.932-1.048-5.895-2.912-8.365zM11.859 8.255c0.164-1.336 0.771-2.599 1.64-3.96 0.033 0.067 0.072 0.129 0.112 0.192 0.352 0.531 0.951 0.833 1.599 0.807 0.289-0.011 0.807 0.033 1.644 0.309 0.952 0.315 1.715 0.992 2.144 1.9s0.465 1.923 0.105 2.865c-0.231 0.593-0.605 1.093-1.075 1.479l-0.544-0.669-0.003-0.004c-0.372-0.455-0.925-0.713-1.512-0.713-0.447 0-0.885 0.156-1.233 0.44-0.445 0.36-0.685 0.88-0.712 1.411-1.6-0.721-2.4-2.191-2.171-4.055l0.005-0.001zM17.597 15.068l-0.692 0.567c-0.061 0.048-0.127 0.071-0.195 0.071-0.088 0-0.177-0.040-0.236-0.113l-0.148-0.18c-0.111-0.133-0.089-0.333 0.045-0.445l0.68-0.56-1.407-1.732c-0.145-0.177-0.121-0.44 0.059-0.581 0.077-0.064 0.168-0.096 0.259-0.096 0.121 0 0.241 0.051 0.32 0.151l3.951 4.86c0.145 0.18 0.12 0.44-0.056 0.581-0.052 0.039-0.109 0.071-0.168 0.084-0.031 0.008-0.060 0.012-0.093 0.012-0.12 0-0.237-0.053-0.32-0.151l-0.393-0.487-1.393 1.139c-0.061 0.049-0.133 0.073-0.205 0.073-0.091 0-0.185-0.040-0.248-0.12l-0.636-0.772c-0.109-0.136-0.091-0.336 0.047-0.448l1.401-1.143-0.568-0.711-0.003 0.001zM10.337 6.488l-1.595-0.1c-0.34-0.020-0.6-0.313-0.58-0.651l0.12-1.868c0.019-0.327 0.288-0.581 0.615-0.581h0.032l1.868 0.121c0.164 0.008 0.315 0.080 0.423 0.203 0.111 0.125 0.164 0.28 0.155 0.448l-0.009 0.135c-0.427 0.756-0.78 1.512-1.031 2.293h0.003zM27.036 21.796c-0.753 1.073-2.249 1.441-3.899 0.957-5.181-1.521-9.861-1.204-13.957 0.935l2.181-6.831-7.055 7.479c0.132-5.016 3.271-9.288 7.677-11.081 0.628 0.497 1.379 0.88 2.231 1.121 0.213 0.059 0.429 0.099 0.64 0.136-0.244 0.611-0.159 1.329 0.28 1.876l0.1 0.12c-0.229 0.6-0.14 1.3 0.295 1.832l0.633 0.776c0.355 0.433 0.879 0.684 1.439 0.684 0.428 0 0.847-0.148 1.181-0.419l0.38-0.309c0.232 0.099 0.489 0.151 0.755 0.151 0.151 0 0.296-0.013 0.44-0.047 0.291-0.067 0.565-0.2 0.797-0.388 0.831-0.68 0.96-1.913 0.279-2.747l-2.227-2.741c0.193-0.156 0.375-0.325 0.544-0.508 0.18 0.049 0.361 0.104 0.533 0.16 0.355 0.129 0.711 0.264 1.060 0.42 1.34 0.593 2.605 1.467 3.695 2.529 0.039 0.040 0.079 0.073 0.113 0.111l0.227 0.233c0.051 0.052 0.101 0.105 0.148 0.16 0.105 0.113 0.213 0.233 0.319 0.356l0.168 0.2c0.060 0.071 0.115 0.139 0.173 0.213l0.152 0.2c0.053 0.068 0.105 0.136 0.156 0.205 1.117 1.532 1.316 3.105 0.539 4.209v0.007zM10.292 5.487l-1.113-0.068 0.071-1.113 1.112 0.068-0.069 1.113z"></path>
</symbol>
<symbol id="left" viewBox="0 0 24 24">
<title>Left</title>
<path d="M12.707 18.293l-5.293-5.293h11.586c0.552 0 1-0.448 1-1s-0.448-1-1-1h-11.586l5.293-5.293c0.391-0.391 0.391-1.024 0-1.414s-1.024-0.391-1.414 0l-7 7c-0.096 0.096-0.168 0.206-0.217 0.324-0.101 0.245-0.101 0.522 0 0.767 0.048 0.116 0.119 0.224 0.212 0.319 0.002 0.002 0.003 0.003 0.005 0.005l7 7c0.391 0.391 1.024 0.391 1.414 0s0.391-1.024 0-1.414z"></path>
</symbol>
<svg id="linkedin" viewBox="0 0 24 28" width="100%" height="100%">
<title>Linkedin</title>
<path d="M5.453 9.766v15.484h-5.156v-15.484h5.156zM5.781 4.984c0.016 1.484-1.109 2.672-2.906 2.672v0h-0.031c-1.734 0-2.844-1.188-2.844-2.672 0-1.516 1.156-2.672 2.906-2.672 1.766 0 2.859 1.156 2.875 2.672zM24 16.375v8.875h-5.141v-8.281c0-2.078-0.75-3.5-2.609-3.5-1.422 0-2.266 0.953-2.641 1.875-0.125 0.344-0.172 0.797-0.172 1.266v8.641h-5.141c0.063-14.031 0-15.484 0-15.484h5.141v2.25h-0.031c0.672-1.062 1.891-2.609 4.672-2.609 3.391 0 5.922 2.219 5.922 6.969z"></path>
</svg>
<symbol id="mastodon" viewBox="0 0 32 32">
<title>Mastodon</title>
<path d="M30.924 10.505c0-6.941-4.548-8.976-4.548-8.976-2.293-1.053-6.232-1.496-10.321-1.529h-0.101c-4.091 0.033-8.027 0.476-10.32 1.529 0 0-4.548 2.035-4.548 8.976 0 1.589-0.031 3.491 0.020 5.505 0.165 6.789 1.245 13.479 7.521 15.14 2.893 0.765 5.379 0.927 7.38 0.816 3.629-0.2 5.667-1.296 5.667-1.296l-0.12-2.633s-2.593 0.817-5.505 0.719c-2.887-0.099-5.932-0.311-6.399-3.855-0.041-0.29-0.064-0.626-0.064-0.967 0-0.009 0-0.018 0-0.028v0.001s2.833 0.693 6.423 0.857c2.195 0.1 4.253-0.129 6.344-0.377 4.009-0.479 7.5-2.949 7.939-5.207 0.689-3.553 0.633-8.676 0.633-8.676zM25.559 19.451h-3.329v-8.159c0-1.72-0.724-2.592-2.171-2.592-1.6 0-2.403 1.035-2.403 3.083v4.465h-3.311v-4.467c0-2.048-0.803-3.083-2.403-3.083-1.447 0-2.171 0.873-2.171 2.592v8.159h-3.329v-8.404c0-1.719 0.437-3.084 1.316-4.093 0.907-1.011 2.092-1.528 3.565-1.528 1.704 0 2.995 0.655 3.848 1.965l0.828 1.391 0.829-1.391c0.853-1.311 2.144-1.965 3.848-1.965 1.472 0 2.659 0.517 3.565 1.528 0.877 1.009 1.315 2.375 1.315 4.093v8.405z"></path>
</symbol>
<symbol id="menu" viewBox="0 0 24 28">
<title>Menu</title>
<path d="M24 21v2c0 0.547-0.453 1-1 1h-22c-0.547 0-1-0.453-1-1v-2c0-0.547 0.453-1 1-1h22c0.547 0 1 0.453 1 1zM24 13v2c0 0.547-0.453 1-1 1h-22c-0.547 0-1-0.453-1-1v-2c0-0.547 0.453-1 1-1h22c0.547 0 1 0.453 1 1zM24 5v2c0 0.547-0.453 1-1 1h-22c-0.547 0-1-0.453-1-1v-2c0-0.547 0.453-1 1-1h22c0.547 0 1 0.453 1 1z"></path>
</symbol>
<symbol id="right" viewBox="0 0 24 24">
<title>Right</title>
<path d="M11.293 5.707l5.293 5.293h-11.586c-0.552 0-1 0.448-1 1s0.448 1 1 1h11.586l-5.293 5.293c-0.391 0.391-0.391 1.024 0 1.414s1.024 0.391 1.414 0l7-7c0.096-0.096 0.168-0.207 0.217-0.325 0.049-0.12 0.075-0.247 0.076-0.374 0.001-0.133-0.024-0.266-0.076-0.39-0.049-0.118-0.121-0.229-0.217-0.325l-7-7c-0.391-0.391-1.024-0.391-1.414 0s-0.391 1.024 0 1.414z"></path>
</symbol>
<symbol id="tags" viewBox="0 0 30 28">
<title>Tags</title>
<path d="M7 7c0-1.109-0.891-2-2-2s-2 0.891-2 2 0.891 2 2 2 2-0.891 2-2zM23.672 16c0 0.531-0.219 1.047-0.578 1.406l-7.672 7.688c-0.375 0.359-0.891 0.578-1.422 0.578s-1.047-0.219-1.406-0.578l-11.172-11.188c-0.797-0.781-1.422-2.297-1.422-3.406v-6.5c0-1.094 0.906-2 2-2h6.5c1.109 0 2.625 0.625 3.422 1.422l11.172 11.156c0.359 0.375 0.578 0.891 0.578 1.422zM29.672 16c0 0.531-0.219 1.047-0.578 1.406l-7.672 7.688c-0.375 0.359-0.891 0.578-1.422 0.578-0.812 0-1.219-0.375-1.75-0.922l7.344-7.344c0.359-0.359 0.578-0.875 0.578-1.406s-0.219-1.047-0.578-1.422l-11.172-11.156c-0.797-0.797-2.312-1.422-3.422-1.422h3.5c1.109 0 2.625 0.625 3.422 1.422l11.172 11.156c0.359 0.375 0.578 0.891 0.578 1.422z"></path>
</symbol>
<symbol id="time" viewBox="0 0 24 24">
<title>Time</title>
<path d="M12.516 6.984v5.25l4.5 2.672-0.75 1.266-5.25-3.188v-6h1.5zM12 20.016q3.281 0 5.648-2.367t2.367-5.648-2.367-5.648-5.648-2.367-5.648 2.367-2.367 5.648 2.367 5.648 5.648 2.367zM12 2.016q4.125 0 7.055 2.93t2.93 7.055-2.93 7.055-7.055 2.93-7.055-2.93-2.93-7.055 2.93-7.055 7.055-2.93z"></path>
</symbol>
<symbol id="twitter" viewBox="0 0 26 28">
<title>Twitter</title>
<path d="M25.312 6.375c-0.688 1-1.547 1.891-2.531 2.609 0.016 0.219 0.016 0.438 0.016 0.656 0 6.672-5.078 14.359-14.359 14.359-2.859 0-5.516-0.828-7.75-2.266 0.406 0.047 0.797 0.063 1.219 0.063 2.359 0 4.531-0.797 6.266-2.156-2.219-0.047-4.078-1.5-4.719-3.5 0.313 0.047 0.625 0.078 0.953 0.078 0.453 0 0.906-0.063 1.328-0.172-2.312-0.469-4.047-2.5-4.047-4.953v-0.063c0.672 0.375 1.453 0.609 2.281 0.641-1.359-0.906-2.25-2.453-2.25-4.203 0-0.938 0.25-1.797 0.688-2.547 2.484 3.062 6.219 5.063 10.406 5.281-0.078-0.375-0.125-0.766-0.125-1.156 0-2.781 2.25-5.047 5.047-5.047 1.453 0 2.766 0.609 3.687 1.594 1.141-0.219 2.234-0.641 3.203-1.219-0.375 1.172-1.172 2.156-2.219 2.781 1.016-0.109 2-0.391 2.906-0.781z"></path>
</symbol>
</defs>
</svg>